# xmcd
#
# Track frame offsets: 
#        150
#        12148
#        24683
#        37893
#        52974
#        66023
#        76268
#        95322
#        108289
#        119366
#        130722
#        140577
#        153421
#        167286
#        178563
#        188544
#        200450
#        211620
#        222986
#        236377
#
# Disc length: 3290 seconds
#
# Revision: 2
# Processed by: cddbd v1.5.2PL0 Copyright (c) Steve Scherf et al.
# Submitted via: ExactAudioCopyFreeDBPlugin 1.0
#
DISCID=f60cd814
DTITLE=Various Artist - Legends of Country Vol 1 CD 1
DYEAR=1900
DGENRE=Country
TTITLE0=Johnny Paycheck - Take This Job And Shove It
TTITLE1=George Jones - She Thinks I Still Care
TTITLE2=Kenny Rogers and The First Edition - Ruby, Don't Take Your Love 
TTITLE2=To Town
TTITLE3=Anne Murray - There Goes My Everything
TTITLE4=Leroy Van Dyke - The Auctioneer
TTITLE5=Roger Miller - Engine Engine No. 9
TTITLE6=Tanya Tucker - Delta Dawn
TTITLE7=Charlie Rich - The Most Beautiful Girl
TTITLE8=The Bellamy Brothers - Let Your Love Flow
TTITLE9=Don Gibson - Sea Of Heartbreak
TTITLE10=Waylon Jennings - White Lightning
TTITLE11=Frankie Laine - Cry Of The Wild Goose
TTITLE12=Patsy Cline - A Church A Courtroom And Then Goodbye
TTITLE13=Conway Twitty - Hello Darlin'
TTITLE14=Barbara Mandrell - Kaw-Liga
TTITLE15=Roy Drusky - Take These Chains From My Heart
TTITLE16=Johnny Cash - Big River
TTITLE17=Merle Haggard - My Friends Are Gonna Be Strangers
TTITLE18=Don Williams - Ruby Tuesday
TTITLE19=George Hamilton IV - Abilene
EXTD=Cat: CEL177 Previously released as 4 CD set All Star Country
EXTT0=
EXTT1=
EXTT2=
EXTT3=
EXTT4=
EXTT5=
EXTT6=
EXTT7=
EXTT8=
EXTT9=
EXTT10=
EXTT11=
EXTT12=
EXTT13=
EXTT14=
EXTT15=
EXTT16=
EXTT17=
EXTT18=
EXTT19=
PLAYORDER=
